<svg width="24" height="24" viewBox="0 0 24 24" fill="none" xmlns="http://www.w3.org/2000/svg">
<g clip-path="url(#clip0_310_4305)">
<path d="M22 2.25001H18.75V0.750012C18.7501 0.551099 18.6712 0.360281 18.5307 0.219535C18.3901 0.0787893 18.1994 -0.000355495 18.0005 -0.000488103C17.8016 -0.000620711 17.6108 0.0782697 17.47 0.218828C17.3293 0.359387 17.2501 0.5501 17.25 0.749012V2.25001H12.75V0.750012C12.7501 0.65152 12.7307 0.553981 12.6931 0.462961C12.6555 0.371942 12.6003 0.289226 12.5307 0.219535C12.4611 0.149845 12.3784 0.0945453 12.2875 0.0567936C12.1965 0.0190419 12.099 -0.000422453 12.0005 -0.000488114C11.8016 -0.000620723 11.6108 0.0782697 11.47 0.218828C11.3293 0.359387 11.2501 0.5501 11.25 0.749012V2.25001H6.75V0.750012C6.75007 0.65152 6.73073 0.553981 6.6931 0.462961C6.65547 0.371942 6.60028 0.289226 6.53068 0.219535C6.46109 0.149845 6.37844 0.0945453 6.28747 0.0567936C6.19651 0.0190419 6.09899 -0.000422453 6.0005 -0.000488114C5.80159 -0.000620723 5.61077 0.0782697 5.47002 0.218828C5.32928 0.359387 5.25013 0.5501 5.25 0.749012V2.25001H2C1.46974 2.25001 0.961184 2.46059 0.58614 2.83544C0.211096 3.2103 0.00026513 3.71875 0 4.24901V21.999C0 22.5294 0.210714 23.0382 0.585786 23.4132C0.960859 23.7883 1.46957 23.999 2 23.999H22C22.5304 23.999 23.0391 23.7883 23.4142 23.4132C23.7893 23.0382 24 22.5294 24 21.999V4.24901C23.9997 3.71875 23.7889 3.2103 23.4139 2.83544C23.0388 2.46059 22.5303 2.25001 22 2.25001V2.25001ZM22.5 22C22.5 22.1324 22.4475 22.2595 22.3539 22.3532C22.2604 22.447 22.1334 22.4997 22.001 22.5H2C1.86739 22.5 1.74021 22.4473 1.64645 22.3536C1.55268 22.2598 1.5 22.1326 1.5 22V4.25001C1.50026 4.11758 1.55306 3.99066 1.6468 3.8971C1.74054 3.80355 1.86756 3.75101 2 3.75101H5.25V5.25101C5.24987 5.44992 5.32876 5.64074 5.46932 5.78149C5.60987 5.92223 5.80059 6.00138 5.9995 6.00151C6.19841 6.00164 6.38923 5.92275 6.52998 5.7822C6.67072 5.64164 6.74987 5.45092 6.75 5.25201V3.75101H11.25V5.25101C11.2499 5.44992 11.3288 5.64074 11.4693 5.78149C11.6099 5.92223 11.8006 6.00138 11.9995 6.00151C12.1984 6.00164 12.3892 5.92275 12.53 5.7822C12.6707 5.64164 12.7499 5.45092 12.75 5.25201V3.75101H17.25V5.25101C17.2499 5.44992 17.3288 5.64074 17.4693 5.78149C17.6099 5.92223 17.8006 6.00138 17.9995 6.00151C18.1984 6.00164 18.3892 5.92275 18.53 5.7822C18.6707 5.64164 18.7499 5.45092 18.75 5.25201V3.75101H22C22.1323 3.75128 22.259 3.80393 22.3526 3.89746C22.4461 3.99098 22.4987 4.11775 22.499 4.25001L22.5 22Z" fill="#4A6F8B"/>
<path d="M5.25 9H8.25V11.25H5.25V9Z" fill="#4A6F8B"/>
<path d="M5.25 12.75H8.25V15H5.25V12.75Z" fill="#4A6F8B"/>
<path d="M5.25 16.5H8.25V18.75H5.25V16.5Z" fill="#4A6F8B"/>
<path d="M10.5 16.5H13.5V18.75H10.5V16.5Z" fill="#4A6F8B"/>
<path d="M10.5 12.75H13.5V15H10.5V12.75Z" fill="#4A6F8B"/>
<path d="M10.5 9H13.5V11.25H10.5V9Z" fill="#4A6F8B"/>
<path d="M15.75 16.5H18.75V18.75H15.75V16.5Z" fill="#4A6F8B"/>
<path d="M15.75 12.75H18.75V15H15.75V12.75Z" fill="#4A6F8B"/>
<path d="M15.75 9H18.75V11.25H15.75V9Z" fill="#4A6F8B"/>
</g>
<defs>
<clipPath id="clip0_310_4305">
<rect width="24" height="24" fill="white"/>
</clipPath>
</defs>
</svg>
