<svg xmlns="http://www.w3.org/2000/svg" width="74" height="98.41" viewBox="0 0 74 98.41">
  <path id="audit" d="M62.967,7.688H48.47a11.534,11.534,0,0,0-21.748,0H12.032A11.545,11.545,0,0,0,.5,19.221V86.878A11.545,11.545,0,0,0,12.032,98.41H62.98A11.548,11.548,0,0,0,74.5,86.878V19.221A11.545,11.545,0,0,0,62.968,7.688ZM33.752,15.377V11.532a3.844,3.844,0,1,1,7.688,0v3.844h7.688v7.5H26.064v-7.5Zm33.06,71.5a3.849,3.849,0,0,1-3.836,3.844H12.032a3.849,3.849,0,0,1-3.844-3.844V19.221a3.849,3.849,0,0,1,3.844-3.844h6.343V30.561H56.817V15.377h6.151a3.849,3.849,0,0,1,3.844,3.844ZM52.244,44.215,57.93,49.39,33.31,76.443,17.048,60.714l5.346-5.526L32.958,65.406Zm0,0" transform="translate(-0.5)" fill="#2387d4"/>
</svg>
