<svg width="23" height="23" viewBox="0 0 23 23" fill="none" xmlns="http://www.w3.org/2000/svg">
<path d="M11.5 21.5625C9.50983 21.5625 7.56435 20.9723 5.90958 19.8667C4.25481 18.761 2.96507 17.1894 2.20347 15.3508C1.44186 13.5121 1.24259 11.4888 1.63085 9.53691C2.01912 7.58497 2.97748 5.79201 4.38474 4.38474C5.79201 2.97748 7.58497 2.01912 9.53691 1.63085C11.4888 1.24259 13.5121 1.44186 15.3508 2.20347C17.1894 2.96507 18.761 4.25481 19.8667 5.90958C20.9723 7.56435 21.5625 9.50983 21.5625 11.5C21.5625 14.1687 20.5023 16.7282 18.6153 18.6153C16.7282 20.5023 14.1687 21.5625 11.5 21.5625ZM11.5 2.875C9.79414 2.875 8.12659 3.38085 6.70821 4.32858C5.28984 5.27631 4.18435 6.62335 3.53154 8.19936C2.87874 9.77537 2.70793 11.5096 3.04073 13.1827C3.37353 14.8557 4.19498 16.3926 5.40121 17.5988C6.60744 18.805 8.14426 19.6265 9.81735 19.9593C11.4904 20.2921 13.2246 20.1213 14.8006 19.4685C16.3767 18.8157 17.7237 17.7102 18.6714 16.2918C19.6192 14.8734 20.125 13.2059 20.125 11.5C20.125 9.21251 19.2163 7.01871 17.5988 5.40121C15.9813 3.78371 13.7875 2.875 11.5 2.875Z" fill="#7E9AB0"/>
<path d="M14.7991 15.8125L10.7812 11.7947V5.03125H12.2188V11.1981L15.8125 14.7991L14.7991 15.8125Z" fill="#7E9AB0"/>
</svg>
