<svg xmlns="http://www.w3.org/2000/svg" width="66.691" height="69.328" viewBox="0 0 66.691 69.328">
  <path id="direct" d="M27.684,56.443a2.094,2.094,0,0,0-3.043,0L19,62.3a2.3,2.3,0,0,0,0,3.162,2.093,2.093,0,0,0,3.043,0L27.684,59.6a2.3,2.3,0,0,0,0-3.162ZM12.395,40.549a2.092,2.092,0,0,0-3.041,0L3.717,46.409a2.3,2.3,0,0,0,0,3.163,2.092,2.092,0,0,0,3.041,0l5.636-5.859a2.3,2.3,0,0,0,0-3.163Zm10.193,5.3a2.1,2.1,0,0,0-3.043,0L5.26,60.7a2.3,2.3,0,0,0,0,3.163,2.1,2.1,0,0,0,3.043,0L22.588,49.01A2.3,2.3,0,0,0,22.588,45.847ZM66.582,2.934,46.2,67.788a2.122,2.122,0,0,1-3.9.429L28.582,43.708a2.309,2.309,0,0,1,.132-2.457l4.922-6.889-6.627,5.117a2.084,2.084,0,0,1-2.364.137L1.068,25.364a2.274,2.274,0,0,1,.413-4.059L63.868.113a2.2,2.2,0,0,1,2.713,2.821Z" transform="translate(0 0)" fill="#2387d4"/>
</svg>
